<svg xmlns="http://www.w3.org/2000/svg" viewBox="0 0 506.76 59"><defs><style>.cls-1{fill:#fff;stroke-width:0.5px;}.cls-1,.cls-2,.cls-3{stroke:#fff;stroke-miterlimit:10;}.cls-2{font-size:45px;font-family:Osaka;}.cls-2,.cls-3{fill:none;}.cls-3{stroke-linecap:round;stroke-width:3px;}</style></defs><g id="レイヤー_2" data-name="レイヤー 2"><g id="レイヤー_1-2" data-name="レイヤー 1"><path class="cls-1" d="M22.51,13.81C13.75,13.81,10,16.93,10,21.19s3.6,5.94,11.16,7.2c10.32,1.74,15.54,3.84,15.54,10.5,0,7.26-5.76,13.68-18.72,13.68C4.51,52.57.31,46.69.31,46.69l3.12-4.14s4.74,5.34,15,5.34c7.8,0,12.3-2.88,12.3-7.86,0-3.66-2.4-5-10.86-6.6C9.91,31.57,4,29.29,4,22.27,4,15.49,9.79,8.89,22.87,8.89c10.74,0,16.38,4.38,16.38,4.38L36.73,18S32,13.81,22.51,13.81Z"/><path class="cls-1" d="M48.61,9.67H67.09C76.39,9.67,82,13.93,82,23c0,11.1-7,16.2-18,16.2H50.77L49.45,51.67H44.17Zm27.9,13.68c0-6.06-3.24-9-10-9H53.35l-2.1,20.16h13.2C72.49,34.51,76.51,31.09,76.51,23.35Z"/><path class="cls-1" d="M91.39,9.67H123l-.54,4.68H96.13l-1.5,14.46h21.54l-.48,4.68H94.15L92.71,47H119l-.48,4.68H87Z"/><path class="cls-1" d="M131.53,9.67h31.56l-.54,4.68H136.27l-1.5,14.46h21.54l-.48,4.68H134.29L132.85,47h26.28l-.48,4.68H127.09Z"/><path class="cls-1" d="M171.67,9.67h14.7c13.5,0,20.7,6.48,20.7,18.48,0,15.66-9.9,23.52-25.14,23.52h-14.7Zm30,19c0-9.9-6-14.28-17-14.28h-8.22L173,47h8.46C194.35,47,201.67,41.77,201.67,28.63Z"/><path class="cls-1" d="M240.07,40.45H220.69l-5.76,11.22h-5.58l21.48-42h5.58l12.6,42h-5.58Zm-17-4.68h15.6l-5.82-19.2Z"/><path class="cls-1" d="M275.59,13.81c-8.76,0-12.54,3.12-12.54,7.38s3.6,5.94,11.16,7.2c10.32,1.74,15.54,3.84,15.54,10.5,0,7.26-5.76,13.68-18.72,13.68-13.44,0-17.64-5.88-17.64-5.88l3.12-4.14s4.74,5.34,15,5.34c7.8,0,12.3-2.88,12.3-7.86,0-3.66-2.4-5-10.86-6.6-10-1.86-15.84-4.14-15.84-11.16,0-6.78,5.76-13.38,18.84-13.38,10.74,0,16.38,4.38,16.38,4.38L289.81,18S285.07,13.81,275.59,13.81Z"/><path class="cls-1" d="M329.23,33.07H304.51l-2,18.6h-5.28l4.44-42H307l-2,18.72h24.72l2-18.72H337l-4.43,42h-5.28Z"/></g><g id="レイヤー_2-2" data-name="レイヤー 2"><text class="cls-2" transform="translate(364.08 44.91)">編集部</text><rect class="cls-3" x="357.26" y="1.5" width="148" height="56"/></g></g></svg>