<svg xmlns="http://www.w3.org/2000/svg" viewBox="0 0 506.76 59"><defs><style>.cls-1,.cls-2,.cls-3{stroke:#000;stroke-miterlimit:10;}.cls-1{stroke-width:0.5px;}.cls-2,.cls-3{fill:none;}.cls-3{stroke-linecap:round;stroke-width:3px;}</style></defs><g id="レイヤー_2" data-name="レイヤー 2"><g id="レイヤー_1-2" data-name="レイヤー 1"><path class="cls-1" d="M22.51,13.81C13.75,13.81,10,16.93,10,21.19s3.6,5.94,11.16,7.2c10.32,1.74,15.54,3.84,15.54,10.5,0,7.26-5.76,13.68-18.72,13.68C4.51,52.57.31,46.69.31,46.69l3.12-4.14s4.74,5.34,15,5.34c7.8,0,12.3-2.88,12.3-7.86,0-3.66-2.4-5-10.86-6.6C9.91,31.57,4,29.29,4,22.27,4,15.49,9.79,8.89,22.87,8.89c10.74,0,16.38,4.38,16.38,4.38L36.73,18S32,13.81,22.51,13.81Z"/><path class="cls-1" d="M48.61,9.67H67.09C76.39,9.67,82,13.93,82,23c0,11.1-7,16.2-18,16.2H50.77L49.45,51.67H44.17Zm27.9,13.68c0-6.06-3.24-9-10-9H53.35l-2.1,20.16h13.2C72.49,34.51,76.51,31.09,76.51,23.35Z"/><path class="cls-1" d="M91.39,9.67H123l-.54,4.68H96.13l-1.5,14.46h21.54l-.48,4.68H94.15L92.71,47H119l-.48,4.68H87Z"/><path class="cls-1" d="M131.53,9.67h31.56l-.54,4.68H136.27l-1.5,14.46h21.54l-.48,4.68H134.29L132.85,47h26.28l-.48,4.68H127.09Z"/><path class="cls-1" d="M171.67,9.67h14.7c13.5,0,20.7,6.48,20.7,18.48,0,15.66-9.9,23.52-25.14,23.52h-14.7Zm30,19c0-9.9-6-14.28-17-14.28h-8.22L173,47h8.46C194.35,47,201.67,41.77,201.67,28.63Z"/><path class="cls-1" d="M240.07,40.45H220.69l-5.76,11.22h-5.58l21.48-42h5.58l12.6,42h-5.58Zm-17-4.68h15.6l-5.82-19.2Z"/><path class="cls-1" d="M275.59,13.81c-8.76,0-12.54,3.12-12.54,7.38s3.6,5.94,11.16,7.2c10.32,1.74,15.54,3.84,15.54,10.5,0,7.26-5.76,13.68-18.72,13.68-13.44,0-17.64-5.88-17.64-5.88l3.12-4.14s4.74,5.34,15,5.34c7.8,0,12.3-2.88,12.3-7.86,0-3.66-2.4-5-10.86-6.6-10-1.86-15.84-4.14-15.84-11.16,0-6.78,5.76-13.38,18.84-13.38,10.74,0,16.38,4.38,16.38,4.38L289.81,18S285.07,13.81,275.59,13.81Z"/><path class="cls-1" d="M329.23,33.07H304.51l-2,18.6h-5.28l4.44-42H307l-2,18.72h24.72l2-18.72H337l-4.43,42h-5.28Z"/></g><g id="レイヤー_2-2" data-name="レイヤー 2"><path class="cls-2" d="M369,45.26c-.59-.12-1.2-.26-1.84-.44a6.83,6.83,0,0,0-1.67-.26c.23-.94.43-1.76.61-2.46a7,7,0,0,0,.26-1.41q.18-.7.53-6.15l3.34.53A79.26,79.26,0,0,1,369,45.26Zm12.13-13.71-3.16.88-.18-.88-2.64.18v17.4h-3.51V31.9l-1.94.18c-2.58.23-3.75.35-3.51.35l-.53-3.52a22.08,22.08,0,0,0,3.52-.17q1.76-3.51,2.46-5.1a52.12,52.12,0,0,0-6-4.22l1.58-3,1.23.53a79.87,79.87,0,0,0,3.7-8.26l3.51,1.76-4.39,8.26,2.11,1.58c.35-.7.81-1.64,1.4-2.81s1.23-2.52,1.94-4l3.16,1.75-4.4,8.44L373,28.56a37.9,37.9,0,0,0,3.87-.17c-.24-.82-.59-1.82-1.05-3l3-1.06A74.82,74.82,0,0,1,381.13,31.55Zm.7-3.87V16.43h22.85v8.79H385.52V28h19.87V45.61a2.86,2.86,0,0,1-.71,2.11c-.47.59-1.7,1.11-3.69,1.58a15.5,15.5,0,0,0-1.4-3.69H401c.35,0,.53-.06.53-.17a.72.72,0,0,0,.18-.53V38.76h-3V47.2h-3V38.76h-3V47.2h-2.81V38.76h-2.81V49h-3.34V39.11a84.9,84.9,0,0,1-3.52,8.61,26,26,0,0,0-3-2.46q.89-1.75,1.41-2.64a12.46,12.46,0,0,0,.88-1.75l-2.46.52c-.24-1.4-.47-3.57-.71-6.5l3.17-.35a18.75,18.75,0,0,0,.53,4.92A63.56,63.56,0,0,0,381.83,27.68ZM380.08,13.8V10.11h26V13.8Zm20.74,8.61v-3h-15.3v3Zm-10.9,13V31h-2.81v4.4Zm5.8,0V31h-3v4.4Zm6,0V31h-3v4.4Z"/><path class="cls-2" d="M436.68,9.75l-1.94,3.52h14.59v3H434v2.81h12.48v2.46H434V24h12.48v2.46H434v3h16.52v2.64H434v3h17v3.34H437.2a29.68,29.68,0,0,0,3.52,1.93c1.41.7,3,1.41,4.75,2.11l7.38,1.76a15.28,15.28,0,0,0-2.64,3.86A39.22,39.22,0,0,1,442,45.26a38.36,38.36,0,0,1-8.09-4.74V49h-4V40.52a72.68,72.68,0,0,1-8.08,4.57,48.71,48.71,0,0,1-8.27,3.34,37.65,37.65,0,0,0-2.28-3.52q3.51-1,7.91-2.81a71.76,71.76,0,0,0,7-3.69H412.07V35.07h17.75v-3H416.11V21.36l-1.41,1.4-1.4,1.41a25.78,25.78,0,0,0-2.81-3c.93-.94,1.63-1.61,2.1-2a17.63,17.63,0,0,0,1.5-1.5c.53-.58,1-1.11,1.49-1.58q3.35-4.39,5.63-8.08l3.51,1.75c-.35.71-.7,1.35-1.05,1.94a16,16,0,0,1-1.06,1.58h8.09L433,8.35Zm-6.51,9.32V16.26h-9.84v2.81Zm0,4.92V21.53h-9.84V24Zm0,5.45v-3h-9.84v3Z"/><path class="cls-2" d="M466.38,13.45V8.88h4.22v4.57h8.62v3.34h-5.1l3,1.4-2.64,6.68h5.8v3.69H456.54V24.87H462a30.54,30.54,0,0,0-2.29-6l3.52-1.4a53.8,53.8,0,0,1,2.28,6l-2.81,1.41h7.91q.52-1.41,2.29-8.08H457.24V13.45Zm-3.16,35.33h-4v-17h18.63V47.55h-3.87V45.79H463.22Zm10.72-6.51v-7H463.22v7Zm7.56-31.64h11.95l.88-.17L497,12.92l-5.1,11.6q5.44,7.22,5.45,11.78a6.32,6.32,0,0,1-1.76,4.92c-1.29,1.29-3.45,2-6.5,2.11-.82-2.46-1.29-3.81-1.41-4h3.17a3.16,3.16,0,0,0,1.93-.53,2.15,2.15,0,0,0,.53-1.58q0-4.23-5.63-12.31,3-6.85,4.22-10.72h-6.5V49H481.5Z"/><rect class="cls-3" x="357.26" y="1.5" width="148" height="56"/></g></g></svg>