<svg xmlns="http://www.w3.org/2000/svg" viewBox="0 0 337.24 44.18"><defs><style>.cls-1{stroke:#000;stroke-miterlimit:10;stroke-width:0.5px;}</style></defs><g id="レイヤー_2" data-name="レイヤー 2"><g id="レイヤー_1-2" data-name="レイヤー 1"><path class="cls-1" d="M22.51,5.17C13.75,5.17,10,8.29,10,12.55s3.6,5.94,11.16,7.2c10.32,1.74,15.54,3.84,15.54,10.5,0,7.26-5.76,13.68-18.72,13.68C4.51,43.93.31,38.05.31,38.05l3.12-4.14s4.74,5.34,15,5.34c7.8,0,12.3-2.88,12.3-7.86,0-3.66-2.4-5-10.86-6.6C9.91,22.93,4,20.65,4,13.63,4,6.85,9.79.25,22.87.25c10.74,0,16.38,4.38,16.38,4.38L36.73,9.31S32,5.17,22.51,5.17Z"/><path class="cls-1" d="M48.61,1H67.09C76.39,1,82,5.29,82,14.35c0,11.1-7,16.2-18,16.2H50.77L49.45,43H44.17Zm27.9,13.68c0-6.06-3.24-9-10-9H53.35l-2.1,20.16h13.2C72.49,25.87,76.51,22.45,76.51,14.71Z"/><path class="cls-1" d="M91.39,1H123l-.54,4.68H96.13l-1.5,14.46h21.54l-.48,4.68H94.15l-1.44,13.5H119L118.51,43H87Z"/><path class="cls-1" d="M131.53,1h31.56l-.54,4.68H136.27l-1.5,14.46h21.54l-.48,4.68H134.29l-1.44,13.5h26.28L158.65,43H127.09Z"/><path class="cls-1" d="M171.67,1h14.7c13.5,0,20.7,6.48,20.7,18.48,0,15.66-9.9,23.52-25.14,23.52h-14.7Zm30,19c0-9.9-6-14.28-17-14.28h-8.22L173,38.35h8.46C194.35,38.35,201.67,33.13,201.67,20Z"/><path class="cls-1" d="M240.07,31.81H220.69L214.93,43h-5.58L230.83,1h5.58L249,43h-5.58Zm-17-4.68h15.6l-5.82-19.2Z"/><path class="cls-1" d="M275.59,5.17c-8.76,0-12.54,3.12-12.54,7.38s3.6,5.94,11.16,7.2c10.32,1.74,15.54,3.84,15.54,10.5,0,7.26-5.76,13.68-18.72,13.68-13.44,0-17.64-5.88-17.64-5.88l3.12-4.14s4.74,5.34,15,5.34c7.8,0,12.3-2.88,12.3-7.86,0-3.66-2.4-5-10.86-6.6-10-1.86-15.84-4.14-15.84-11.16C257.11,6.85,262.87.25,276,.25c10.74,0,16.38,4.38,16.38,4.38l-2.52,4.68S285.07,5.17,275.59,5.17Z"/><path class="cls-1" d="M329.23,24.43H304.51l-2,18.6h-5.28l4.44-42H307l-2,18.72h24.72l2-18.72H337l-4.43,42h-5.28Z"/></g></g></svg>